<?xml version="1.0" encoding="UTF-8"?>
<svg width="512" height="512" version="1.2" xmlns="http://www.w3.org/2000/svg"
    baseProfile="tiny-ps">
    <title>Spero Solutions</title>
    <path fill="rgb(0,0,0)" stroke="rgb(0,0,0)" stroke-width="1" opacity="0"
        d="M 0 0 L 256.5 0 L 257.5 1 L 259 0.5 L 113 146.5 L 113 219.5 L 261.5 367 L 261 365.5 L 261 292.5 L 152 182.5 L 261 73.5 L 261 0 L 512 0 L 512 512 L 265.5 512 L 264.5 511 L 262.5 512 L 406.5 367 L 408 366.5 L 408 292 L 406.5 292 L 262 147.5 Q 262.7 144.9 260 146 L 260 220.5 L 261.5 221 L 370 329.5 L 261.5 438 L 260 438.5 L 260 511.5 L 259 511.5 L 258.5 439 L 258 512 L 0 512 L 0 0 Z M 263 1 L 262 74 L 263 74 L 263 1 Z M 259 146 L 258 221 L 259 221 L 259 146 Z M 112 149 L 111 219 L 112 219 L 112 149 Z M 263 292 L 262 365 L 263 365 L 263 292 Z M 410 292 L 409 367 L 410 367 L 410 292 Z " />
    <path fill="rgb(2,161,218)" stroke="rgb(2,161,218)" stroke-width="1" opacity="0.9882352941176471"
        d="M 259.5 1 L 261 1.5 L 261 72.5 L 114 218.5 L 114 146.5 L 259.5 1 Z " />
    <path fill="rgb(2,161,218)" stroke="rgb(2,161,218)" stroke-width="1" opacity="0.9882352941176471"
        d="M 260 147 L 261.5 147 L 407 292.5 L 407 364.5 L 405.5 365 L 260 219.5 L 260 147 Z " />
    <path fill="rgb(0,112,152)" stroke="rgb(0,112,152)" stroke-width="1" opacity="0.9882352941176471"
        d="M 150.5 183 L 261 293.5 L 261 365.5 L 114 219.5 L 150.5 183 Z " />
    <path fill="rgb(0,112,152)" stroke="rgb(0,112,152)" stroke-width="1" opacity="0.9882352941176471"
        d="M 369.5 330 L 405.5 365 L 407 365 L 407 366.5 L 261.5 512 L 260 511.5 L 260 439.5 L 369.5 330 Z " />
    <path fill="rgb(0,143,190)" stroke="rgb(0,143,190)" stroke-width="1" opacity="0.058823529411764705"
        d="M 257.5 0 L 259.5 0 L 261 0.5 L 114 146.5 L 114 219.5 L 260.5 366 L 262 366.5 L 259.5 368 L 112 220.5 L 113 219.5 L 112.5 146 L 111.5 148 L 111 146.5 L 257.5 0 Z " />
    <path fill="rgb(0,143,190)" stroke="rgb(0,143,190)" stroke-width="1" opacity="0.058823529411764705"
        d="M 262.5 1 L 263 73.5 L 154 183.5 L 263 292.5 L 263 364.5 L 262 364.5 L 261.5 292 L 260.5 293 L 151 183.5 L 260.5 73 L 262 73.5 L 262.5 1 Z " />
    <path fill="rgb(0,143,190)" stroke="rgb(0,143,190)" stroke-width="1" opacity="0.058823529411764705"
        d="M 260.5 144 L 260.5 146 L 262.5 145 L 410 292.5 L 410 366.5 L 264 511.5 L 408 367.5 L 407 366.5 L 407 292.5 L 408 291.5 L 262.5 146 L 261.5 147 L 259.5 146 L 259 220.5 L 261 220.5 L 260 221.5 L 368 329.5 L 260 437.5 L 260.5 439 L 259 437.5 L 367 329.5 L 258 220.5 L 258 146.5 L 260.5 144 Z M 409 292 L 408 367 L 409 367 L 409 292 Z " />
    <path fill="rgb(0,143,190)" stroke="rgb(0,143,190)" stroke-width="1" opacity="0.058823529411764705"
        d="M 111.5 149 L 112 218.5 L 111 218.5 L 111.5 149 Z " />
    <path fill="rgb(0,143,190)" stroke="rgb(0,143,190)" stroke-width="1" opacity="0.058823529411764705"
        d="M 258.5 439 L 259 511.5 L 258 511.5 L 258.5 439 Z " />
</svg>